<?xml version="1.0" encoding="UTF-8" standalone="no"?>
<!-- Generator: Adobe Illustrator 17.0.1, SVG Export Plug-In . SVG Version: 6.00 Build 0)  -->

<svg
   xmlns:dc="http://purl.org/dc/elements/1.1/"
   xmlns:cc="http://creativecommons.org/ns#"
   xmlns:rdf="http://www.w3.org/1999/02/22-rdf-syntax-ns#"
   xmlns:svg="http://www.w3.org/2000/svg"
   xmlns="http://www.w3.org/2000/svg"
   xmlns:sodipodi="http://sodipodi.sourceforge.net/DTD/sodipodi-0.dtd"
   xmlns:inkscape="http://www.inkscape.org/namespaces/inkscape"
   inkscape:export-ydpi="90.632324"
   inkscape:export-xdpi="90.632324"
   inkscape:export-filename="icon-thakir_sailfish7.png"
   sodipodi:docname="icon-thakir_sailfish.svg"
   inkscape:version="0.91 r13725"
   id="svg5801"
   xml:space="preserve"
   enable-background="new 0 0 86 86"
   viewBox="0 0 86 86"
   height="86px"
   width="86px"
   y="0px"
   x="0px"
   version="1.1"><metadata
     id="metadata5822"><rdf:RDF><cc:Work
         rdf:about=""><dc:format>image/svg+xml</dc:format><dc:type
           rdf:resource="http://purl.org/dc/dcmitype/StillImage" /><dc:title></dc:title></cc:Work></rdf:RDF></metadata><defs
     id="defs5820" /><sodipodi:namedview
     inkscape:current-layer="svg5801"
     inkscape:window-maximized="1"
     inkscape:window-y="24"
     inkscape:window-x="65"
     inkscape:cy="53.6504"
     inkscape:cx="41.131055"
     inkscape:zoom="2.744186"
     showgrid="false"
     id="namedview5818"
     inkscape:window-height="744"
     inkscape:window-width="1301"
     inkscape:pageshadow="2"
     inkscape:pageopacity="0"
     guidetolerance="10"
     gridtolerance="10"
     objecttolerance="10"
     borderopacity="1"
     bordercolor="#666666"
     pagecolor="#ffffff" /><g
     id="Layer_2"
     display="none" /><g
     id="Layer_1"
     style="fill:#0062ff;fill-opacity:0.80701755"
     inkscape:transform-center-y="9.4745763"><linearGradient
       id="SVGID_1_"
       gradientUnits="userSpaceOnUse"
       x1="12.8065"
       y1="73.193497"
       x2="85.282898"
       y2="0.71710002"><stop
         offset="0"
         style="stop-color:#7F34B8"
         id="stop5806" /><stop
         offset="0.9951"
         style="stop-color:#F33B82"
         id="stop5808" /></linearGradient><path
       d="m 85.699,1.723 c 0,-0.786 -0.637,-1.423 -1.423,-1.423 0,0 -40.641,0 -41.276,0 C 19.417,0.3 0.3,19.417 0.3,43 0.3,66.582 19.417,85.7 43,85.7 66.583,85.7 85.7,66.582 85.7,43 85.7,42.364 85.699,1.723 85.699,1.723 z"
       id="path5810"
       style="fill:#0062ff;fill-opacity:0.80701755"
       inkscape:connector-curvature="0" /><g
       id="g5812"
       style="fill:#0062ff;fill-opacity:0.80701755"
       transform="translate(7.6525425,9.8389832)" /></g><path
     inkscape:connector-curvature="0"
     style="fill:#f2f2f2"
     d="m 63.402539,4.4863409 c -9.702998,0 -17.568742,7.8657401 -17.568742,17.5687411 0,9.70285 7.865815,17.56874 17.568742,17.56874 9.702859,0 17.568743,-7.86589 17.568743,-17.56874 0,-9.703001 -7.865884,-17.5687411 -17.568743,-17.5687411 z m 0,31.2996511 c -7.588406,0 -13.730908,-6.14122 -13.730908,-13.73091 0,-7.58855 6.141218,-13.730911 13.730908,-13.730911 7.588408,0 13.730911,6.141151 13.730911,13.730911 0,7.58841 -6.141221,13.73091 -13.730911,13.73091 z m 10.815558,-12.8964 c 0.14591,0.0253 0.252507,0.1519 0.252507,0.30002 l 0,0.008 c 0,0.14677 -0.104315,0.27199 -0.248512,0.29889 -3.163506,0.5917 -10.658088,1.82084 -11.480465,1.82084 -1.177556,0 -2.132144,-0.95452 -2.132144,-2.13214 0,-0.83851 1.261461,-8.92722 1.843676,-12.202671 0.0234,-0.1315 0.137777,-0.22761 0.271344,-0.22761 l 6.24e-4,0 c 0.145696,0 0.269844,0.10603 0.292677,0.25008 l 1.614645,10.226071 9.585558,1.65867 z"
     id="path3526" /><g
     transform="matrix(0.11263427,0,0,0.10582604,9.7144774,7.2658423)"
     id="layer1"
     style="fill:#00007f"><path
       inkscape:connector-curvature="0"
       d="m 132.09375,51.875 c -8.47526,8.61177 -12.71875,13.711667 -12.71875,24.4375 0,10.725837 5.09038,18.323692 8.21875,21.75 3.12837,3.42631 -0.0625,6.5625 -0.0625,6.5625 -9.23614,11.02378 -13.40625,21.73084 -13.40625,27.09375 0,5.36293 0,73.25 0,73.25 l -5.375,0 0,-2.9375 -4.78125,0 0,18.46875 8.0625,8.9375 0,72.71875 -10.125,0 0,-2.6875 -5.9375,0 0,17.6875 13.375,23.125 c 0,0 0,78.66586 0,89.09375 0,10.4279 0.002,20.27026 -5.0625,27.71875 -5.064975,7.44851 -5.6875,18.875 -5.6875,18.875 l 0,45.84375 c -1.02076,0.4459 -2.068903,0.75542 -2.75,0.5 -1.685402,-0.63203 -0.604976,-3.58568 -3.34375,-3.375 -2.738778,0.21067 -7.28125,5.18747 -7.28125,5.1875 l 0,102.78125 346.1875,0 0,-79.25 -3.28125,0 c 0,0 10e-6,-10.72017 0,-19.0625 0,-8.34232 -9.53126,-9.24998 -9.53125,-9.25 l -30.21875,0 c 0.8646,-0.82986 17.34375,-16.9974 17.34375,-43.78125 0,-27.49999 -11.80357,-40.33482 -25.375,-53.90625 -6.87026,-6.87026 -18.86652,-17.49245 -35,-28.03125 -15.3433,-10.02261 -37.86697,-18.95455 -45.03125,-26.75 l 0,-22.375 c 8.64968,-1.45132 12.125,-6.81642 12.125,-13.28125 C 312.43751,321.42236 300,318.25 300,318.25 c 10e-6,-10e-6 7.375,3.59057 7.375,11.28125 0,3.16013 -2.41369,7.59375 -12,7.59375 -9.58571,-10e-6 -12.03125,-4.43362 -12.03125,-7.59375 0,-7.05882 7.5,-11.15625 7.5,-11.15625 0,10e-6 -12.53125,3.02698 -12.53125,12.84375 -10e-6,6.60425 3.67,12.06744 12.6875,13.375 l 0,22.4375 c -7.31365,7.75982 -29.66159,16.63556 -44.90625,26.59375 -16.13348,10.53881 -28.16099,21.16099 -35.03125,28.03125 -13.57143,13.57143 -25.34375,26.40625 -25.34375,53.90625 0,24.92189 14.24264,40.6261 16.9375,43.375 l -37.03125,0 0,-42.96875 c 0,-10e-6 -0.62253,-11.4265 -5.6875,-18.875 -5.06498,-7.44848 -5.0625,-17.29086 -5.0625,-27.71875 0,-10.42788 0,-89.09375 0,-89.09375 l 13.34375,-23.125 0,-17.6875 -5.90625,0 0,2.6875 -10.125,0 0,-72.71875 8.03125,-8.9375 0,-18.46875 -4.75,0 0,2.9375 -5.375,0 c -1e-5,0 0,-67.88708 0,-73.25 -1e-5,-5.3629 -4.17011,-16.06997 -13.40625,-27.09375 1e-5,0 -3.19087,-3.13619 -0.0625,-6.5625 3.12837,-3.426309 8.1875,-11.024167 8.1875,-21.75 1e-5,-10.725829 -4.24349,-15.234691 -12.71875,-24.4375 z m -15.15625,118.71875 2.71875,0 0,34.125 -2.71875,0 0,-34.125 z m 10.71875,0 7.6875,0 0,34.125 -7.6875,0 0,-34.125 z m 15.71875,0 2.71875,0 0,34.125 -2.71875,0 0,-34.125 z"
       style="color:#000000;display:inline;overflow:visible;visibility:visible;fill:#00007f;fill-opacity:1;fill-rule:evenodd;stroke:none;stroke-width:1px;stroke-linecap:butt;stroke-linejoin:miter;stroke-miterlimit:4;stroke-dashoffset:0;stroke-opacity:1;marker:none;marker-start:none;marker-mid:none;marker-end:none;enable-background:accumulate"
       id="path12166" /></g></svg>