<?xml version="1.0" encoding="UTF-8" standalone="no"?>
<!-- Created with Inkscape (http://www.inkscape.org/) -->

<svg
   xmlns:dc="http://purl.org/dc/elements/1.1/"
   xmlns:cc="http://creativecommons.org/ns#"
   xmlns:rdf="http://www.w3.org/1999/02/22-rdf-syntax-ns#"
   xmlns:svg="http://www.w3.org/2000/svg"
   xmlns="http://www.w3.org/2000/svg"
   xmlns:xlink="http://www.w3.org/1999/xlink"
   xmlns:sodipodi="http://sodipodi.sourceforge.net/DTD/sodipodi-0.dtd"
   xmlns:inkscape="http://www.inkscape.org/namespaces/inkscape"
   width="86"
   height="86"
   id="svg2"
   version="1.1"
   inkscape:version="0.91 r13725"
   sodipodi:docname="icon-thakir_sailfish_type2.svg"
   inkscape:export-filename="/home/haf/Prog_HAF_SailfishOS/harbour-al_quran_player/appicons/256x256/apps/harbour-al_quran_player.png"
   inkscape:export-xdpi="269.78925"
   inkscape:export-ydpi="269.78925">
  <defs
     id="defs4">
    <linearGradient
       id="linearGradient3789-6">
      <stop
         style="stop-color:#1e9bff;stop-opacity:1;"
         offset="0"
         id="stop3791-0" />
      <stop
         style="stop-color:#00c8de;stop-opacity:1;"
         offset="1"
         id="stop3793-4" />
    </linearGradient>
    <linearGradient
       gradientTransform="translate(0,4)"
       y2="0"
       x2="86"
       y1="86"
       x1="0"
       gradientUnits="userSpaceOnUse"
       id="linearGradient3030"
       xlink:href="#linearGradient3789-6"
       inkscape:collect="always" />
  </defs>
  <sodipodi:namedview
     id="base"
     pagecolor="#ffffff"
     bordercolor="#666666"
     borderopacity="1.0"
     inkscape:pageopacity="0.0"
     inkscape:pageshadow="2"
     inkscape:zoom="4"
     inkscape:cx="71.89176"
     inkscape:cy="55.056114"
     inkscape:document-units="px"
     inkscape:current-layer="layer2"
     showgrid="true"
     inkscape:window-width="1301"
     inkscape:window-height="744"
     inkscape:window-x="65"
     inkscape:window-y="24"
     inkscape:window-maximized="1"
     inkscape:snap-bbox="true"
     inkscape:snap-global="true">
    <inkscape:grid
       type="xygrid"
       id="grid2985"
       empspacing="5"
       visible="true"
       enabled="true"
       snapvisiblegridlinesonly="true" />
  </sodipodi:namedview>
  <metadata
     id="metadata7">
    <rdf:RDF>
      <cc:Work
         rdf:about="">
        <dc:format>image/svg+xml</dc:format>
        <dc:type
           rdf:resource="http://purl.org/dc/dcmitype/StillImage" />
        <dc:title></dc:title>
      </cc:Work>
    </rdf:RDF>
  </metadata>
  <g
     inkscape:groupmode="layer"
     id="layer2"
     inkscape:label="Ebene"
     style="display:inline"
     transform="translate(0,-4)">
    <path
       inkscape:connector-curvature="0"
       style="fill:url(#linearGradient3030);fill-opacity:1"
       id="path11"
       d="M 84.277,4.3 H 43 C 19.417,4.3 0.3,23.418 0.3,47 v 41.277 c 0,0.786 0.637,1.423 1.423,1.423 H 43 C 66.583,89.7 85.7,70.582 85.7,47 V 5.723 C 85.7,4.937 85.063,4.3 84.277,4.3 z" />
    <g
       transform="matrix(0.12960485,0,0,0.10386962,3.2682661,14.492331)"
       id="layer1"
       style="fill:#ffffff">
      <path
         inkscape:connector-curvature="0"
         d="m 132.09375,51.875 c -8.47526,8.61177 -12.71875,13.711667 -12.71875,24.4375 0,10.725837 5.09038,18.323692 8.21875,21.75 3.12837,3.42631 -0.0625,6.5625 -0.0625,6.5625 -9.23614,11.02378 -13.40625,21.73084 -13.40625,27.09375 0,5.36293 0,73.25 0,73.25 l -5.375,0 0,-2.9375 -4.78125,0 0,18.46875 8.0625,8.9375 0,72.71875 -10.125,0 0,-2.6875 -5.9375,0 0,17.6875 13.375,23.125 c 0,0 0,78.66586 0,89.09375 0,10.4279 0.002,20.27026 -5.0625,27.71875 -5.064975,7.44851 -5.6875,18.875 -5.6875,18.875 l 0,45.84375 c -1.02076,0.4459 -2.068903,0.75542 -2.75,0.5 -1.685402,-0.63203 -0.604976,-3.58568 -3.34375,-3.375 -2.738778,0.21067 -7.28125,5.18747 -7.28125,5.1875 l 0,102.78125 346.1875,0 0,-79.25 -3.28125,0 c 0,0 10e-6,-10.72017 0,-19.0625 0,-8.34232 -9.53126,-9.24998 -9.53125,-9.25 l -30.21875,0 c 0.8646,-0.82986 17.34375,-16.9974 17.34375,-43.78125 0,-27.49999 -11.80357,-40.33482 -25.375,-53.90625 -6.87026,-6.87026 -18.86652,-17.49245 -35,-28.03125 -15.3433,-10.02261 -37.86697,-18.95455 -45.03125,-26.75 l 0,-22.375 c 8.64968,-1.45132 12.125,-6.81642 12.125,-13.28125 C 312.43751,321.42236 300,318.25 300,318.25 c 10e-6,-10e-6 7.375,3.59057 7.375,11.28125 0,3.16013 -2.41369,7.59375 -12,7.59375 -9.58571,-10e-6 -12.03125,-4.43362 -12.03125,-7.59375 0,-7.05882 7.5,-11.15625 7.5,-11.15625 0,10e-6 -12.53125,3.02698 -12.53125,12.84375 -10e-6,6.60425 3.67,12.06744 12.6875,13.375 l 0,22.4375 c -7.31365,7.75982 -29.66159,16.63556 -44.90625,26.59375 -16.13348,10.53881 -28.16099,21.16099 -35.03125,28.03125 -13.57143,13.57143 -25.34375,26.40625 -25.34375,53.90625 0,24.92189 14.24264,40.6261 16.9375,43.375 l -37.03125,0 0,-42.96875 c 0,-10e-6 -0.62253,-11.4265 -5.6875,-18.875 -5.06498,-7.44848 -5.0625,-17.29086 -5.0625,-27.71875 0,-10.42788 0,-89.09375 0,-89.09375 l 13.34375,-23.125 0,-17.6875 -5.90625,0 0,2.6875 -10.125,0 0,-72.71875 8.03125,-8.9375 0,-18.46875 -4.75,0 0,2.9375 -5.375,0 c -1e-5,0 0,-67.88708 0,-73.25 -1e-5,-5.3629 -4.17011,-16.06997 -13.40625,-27.09375 1e-5,0 -3.19087,-3.13619 -0.0625,-6.5625 3.12837,-3.426309 8.1875,-11.024167 8.1875,-21.75 1e-5,-10.725829 -4.24349,-15.234691 -12.71875,-24.4375 z m -15.15625,118.71875 2.71875,0 0,34.125 -2.71875,0 0,-34.125 z m 10.71875,0 7.6875,0 0,34.125 -7.6875,0 0,-34.125 z m 15.71875,0 2.71875,0 0,34.125 -2.71875,0 0,-34.125 z"
         style="color:#000000;display:inline;overflow:visible;visibility:visible;fill:#ffffff;fill-opacity:1;fill-rule:evenodd;stroke:none;stroke-width:1px;stroke-linecap:butt;stroke-linejoin:miter;stroke-miterlimit:4;stroke-dashoffset:0;stroke-opacity:1;marker:none;marker-start:none;marker-mid:none;marker-end:none;enable-background:accumulate"
         id="path12166" />
    </g>
    <path
       inkscape:connector-curvature="0"
       style="fill:#fffafa"
       d="m 63.457624,9.986341 c -9.664384,0 -17.498827,7.820685 -17.498827,17.468105 0,9.64727 7.834514,17.468105 17.498827,17.468105 9.664245,0 17.498827,-7.820835 17.498827,-17.468105 0,-9.64742 -7.834582,-17.468105 -17.498827,-17.468105 z m 0,31.120364 c -7.558208,0 -13.676266,-6.106043 -13.676266,-13.652259 0,-7.545082 6.116779,-13.652259 13.676266,-13.652259 7.55821,0 13.676269,6.105973 13.676269,13.652259 0,7.544943 -6.116782,13.652259 -13.676269,13.652259 z M 74.230141,28.284177 c 0.145327,0.02516 0.251502,0.151036 0.251502,0.298301 l 0,0.008 c 0,0.145938 -0.103896,0.270432 -0.247523,0.297179 -3.150916,0.588309 -10.615673,1.81041 -11.434778,1.81041 -1.17287,0 -2.123658,-0.949053 -2.123658,-2.119928 0,-0.833707 1.25644,-8.876085 1.836338,-12.132774 0.02331,-0.130748 0.137235,-0.226305 0.270263,-0.226305 l 6.22e-4,0 c 0.145113,0 0.26877,0.10543 0.291512,0.248648 l 1.60822,10.167494 9.547413,1.64917 z"
       id="path3526" />
  </g>
</svg>
